Patient4_TMGait_0pt6_01_left_09_GRF.mot
version=1
nRows=26
nColumns=19
inDegrees=no
endheader
time	F1x	F1y	F1z	M1x	M1y	M1z	F2x	F2y	F2z	M2x	M2y	M2z	EC1x	EC1y	EC1z	EC2x	EC2y	EC2z
10.94	6.7402	2.3411	10.0033	-2.5082	-5.5547	8.801	-27.3397	713.3396	-55.8789	267.6797	63.4472	661.9892	-0.0592	0.0182	-0.0073	-0.0462	0.0165	0.9585
10.9521	4.3995	2.2293	6.6364	-1.9168	-3.6684	6.5546	-27.4443	715.158	-54.6106	268.818	61.2088	662.6755	-0.0592	0.0182	-0.0073	-0.0462	0.0165	0.9585
10.9641	2.4261	2.1803	3.844	-1.4439	-2.1507	4.7046	-27.2507	720.1541	-53.3773	271.1074	58.9803	665.2718	-0.0592	0.0182	-0.0073	-0.0462	0.0165	0.9585
10.9762	0.9314	2.1869	1.7446	-1.1103	-1.0381	3.3426	-26.7554	728.5493	-52.2729	274.6199	56.9099	669.9758	-0.0592	0.0182	-0.0073	-0.0462	0.0165	0.9585
10.9883	-0.099441	2.2285	0.32544	-0.90331	-0.31303	2.4425	-25.9845	739.9011	-51.3669	279.1936	55.0785	676.4889	-0.0592	0.0182	-0.0073	-0.0462	0.0165	0.9585
11.0004	-0.74399	2.2932	-0.5377	-0.79854	0.11043	1.929	-24.9807	753.2334	-50.6942	284.4673	53.5134	684.0855	-0.0592	0.0182	-0.0073	-0.0462	0.0165	0.9585
11.0124	-1.1033	2.3489	-0.97458	-0.75912	0.30342	1.6895	-23.8034	767.1942	-50.253	289.9371	52.1963	691.7274	-0.0592	0.0182	-0.0073	-0.0462	0.0165	0.9585
11.0245	-1.2925	2.3641	-1.1248	-0.74914	0.33763	1.6113	-22.4769	780.22	-50.0262	295.0153	51.0816	698.1846	-0.0592	0.0182	-0.0073	-0.0462	0.0165	0.9585
11.0366	-1.3969	2.2843	-1.094	-0.7293	0.26157	1.5719	-21.0205	790.7265	-49.9822	299.1026	50.1169	702.2104	-0.0592	0.0182	-0.0073	-0.0462	0.0165	0.9585
11.0486	-1.4918	2.0468	-0.97116	-0.66265	0.11801	1.4544	-19.4389	797.2727	-50.0841	301.6547	49.2539	702.6667	-0.0592	0.0182	-0.0073	-0.0462	0.0165	0.9585
11.0607	-1.6131	1.572	-0.8158	-0.51048	-0.060007	1.1244	-17.7219	798.8175	-50.2797	302.2796	48.4364	698.7677	-0.0592	0.0182	-0.0073	-0.0462	0.0165	0.9585
11.0728	-1.7746	0.7855	-0.66857	-0.23685	-0.24271	0.47743	-15.8252	794.8408	-50.5172	300.7906	47.603	690.1411	-0.0592	0.0182	-0.0073	-0.0462	0.0165	0.9585
11.0849	-1.9446	-0.37093	-0.55773	0.18502	-0.39319	-0.57715	-13.6955	785.4117	-50.7635	297.232	46.7072	676.8969	-0.0592	0.0182	-0.0073	-0.0462	0.0165	0.9585
11.0969	-2.0733	-1.9213	-0.48725	0.76156	-0.48794	-2.0657	-11.2658	771.2253	-51.0135	291.8917	45.7339	659.6542	-0.0592	0.0182	-0.0073	-0.0462	0.0165	0.9585
11.109	-2.0468	-3.7879	-0.474	1.4606	-0.47142	-3.9089	-8.5099	753.5946	-51.2723	285.2988	44.6885	639.5421	-0.0592	0.0182	-0.0073	-0.0462	0.0165	0.9585
11.1211	-1.7101	-5.7344	-0.51474	2.1921	-0.28817	-5.8536	-5.4107	734.323	-51.5716	278.1717	43.6022	618.0784	-0.0592	0.0182	-0.0073	-0.0462	0.0165	0.9585
11.1331	-0.8579	-7.3062	-0.62419	2.7837	0.15452	-7.4304	-1.9827	715.4499	-51.9374	271.316	42.5023	596.9746	-0.0592	0.0182	-0.0073	-0.0462	0.0165	0.9585
11.1452	0.73903	-7.7445	-0.79707	2.9494	0.93873	-7.872	1.7568	698.8976	-52.3978	265.4827	41.415	577.8449	-0.0592	0.0182	-0.0073	-0.0462	0.0165	0.9585
11.1573	3.3101	-5.9602	-1.0398	2.272	2.1535	-6.0813	5.7714	686.1451	-52.9605	261.2384	40.3465	561.9371	-0.0592	0.0182	-0.0073	-0.0462	0.0165	0.9585
11.1694	7.0178	-0.51388	-1.3277	0.20161	3.8301	-0.59875	10.0004	677.9108	-53.6323	258.8443	39.3052	549.8791	-0.0592	0.0182	-0.0073	-0.0462	0.0165	0.9585
11.1814	11.8713	10.3215	-1.6388	-3.9165	5.9428	10.33	14.3307	673.9683	-54.3807	258.1877	38.2875	541.5527	-0.0592	0.0182	-0.0073	-0.0462	0.0165	0.9585
11.1935	17.5842	28.3275	-1.9048	-10.7555	8.3114	28.5257	18.6068	673.1455	-55.1325	258.7834	37.2809	536.1083	-0.0592	0.0182	-0.0073	-0.0462	0.0165	0.9585
11.2056	23.3894	54.9507	-2.0262	-20.8591	10.5416	55.4759	22.6202	673.4957	-55.7673	259.8404	36.2639	532.1228	-0.0592	0.0182	-0.0073	-0.0462	0.0165	0.9585
11.2176	27.8782	90.6541	-1.8276	-34.3951	11.9252	91.6733	26.0951	672.5997	-56.1206	260.3826	35.2135	527.8256	-0.0592	0.0182	-0.0073	-0.0462	0.0165	0.9585
11.2297	29.1158	134.2789	-1.0682	-50.9141	11.5073	135.979	28.7631	668.0244	-56.0012	259.4311	34.0947	521.4276	-0.0592	0.0182	-0.0073	-0.0462	0.0165	0.9585
11.2418	25.6792	182.9465	0.56305	-69.2996	8.4676	185.4976	30.4285	657.8373	-55.1954	256.2152	32.8317	511.4955	-0.0592	0.0182	-0.0073	-0.0462	0.0165	0.9585
